<svg xmlns="http://www.w3.org/2000/svg" xmlns:xlink="http://www.w3.org/1999/xlink" viewBox="0 0 1920 1080"><defs><style>.a{clip-path:url(#b);}.b{fill:#ef6e95;}.c{fill:#87d1ff;}.d{fill:#fff;}</style><clipPath id="b"><rect width="1920" height="1080"/></clipPath></defs><g id="a" class="a"><rect class="d" width="1920" height="1080"/><path class="b" d="M-378,1925.4c142.078-168.078,205.108-274.7,527.345-218.764,171.109,29.7,235.5-225.845,168.078-427.286C257.6,1100.623,85.537,978.842-71.257,922.184-405.575,801.378,25.125,423.2-41.319,120.4S-378-200-378-200Z" transform="translate(177.695 -712.667)"/><path class="c" d="M-378,1817.133c134.841-159.516,194.66-260.709,500.482-207.62C284.875,1637.7,345.989,1395.172,282,1203.993,225.224,1034.37,61.925,918.792-86.883,865.021-404.171,750.368,4.59,391.457-58.469,104.078S-378-200-378-200Z" transform="translate(1720.42 1777.733) rotate(180)"/></g></svg>