<svg xmlns="http://www.w3.org/2000/svg" xmlns:xlink="http://www.w3.org/1999/xlink" viewBox="0 0 1920 1080"><defs><style>.a{clip-path:url(#b);}.b{fill:none;stroke:#707070;}.c{fill:#ef6e95;}.d{fill:#87d1ff;}.e{fill:#fff;}</style><clipPath id="b"><rect width="1920" height="1080"/></clipPath></defs><g id="a" class="a"><rect class="e" width="1920" height="1080"/><path class="b" d="M-378,879.067C-305.867,793.733-273.867,739.6-110.267,768-23.395,783.08,9.3,653.338-24.933,551.067-55.3,460.327-142.662,398.5-222.267,369.733-392,308.4-173.333,116.4-207.067-37.333S-378-200-378-200Z" transform="translate(378 200)"/><path class="c" d="M-378,879.067C-305.867,793.733-273.867,739.6-110.267,768-23.395,783.08,9.3,653.338-24.933,551.067-55.3,460.327-142.662,398.5-222.267,369.733-392,308.4-173.333,116.4-207.067-37.333S-378-200-378-200Z" transform="translate(378 200)"/><path class="d" d="M-378,879.067C-305.867,793.733-273.867,739.6-110.267,768-23.395,783.08,9.3,653.338-24.933,551.067-55.3,460.327-142.662,398.5-222.267,369.733-392,308.4-173.333,116.4-207.067-37.333S-378-200-378-200Z" transform="translate(1542.42 879.067) rotate(180)"/></g></svg>